<?xml version="1.0" encoding="utf-8"?>
<!DOCTYPE svg PUBLIC "-//W3C//DTD SVG 20010904//EN" "http://www.w3.org/TR/2001/REC-SVG-20010904/DTD/svg10.dtd">
<svg version="1.0" xmlns="http://www.w3.org/2000/svg" width="2002pt" height="738pt" viewBox="0 0 2002 738" style="" preserveAspectRatio="xMidYMid meet">
<g fill="#3466AFFF" stroke="#3466AFFF">
<path d="M 1084.856 33.169 C 1069.810 50.305 1055.475 66.697 1053.000 69.595 C 1050.525 72.494 1048.623 74.260 1048.774 73.520 C 1048.925 72.779 1047.012 70.505 1044.523 68.465 C 1040.706 65.338 1039.755 64.958 1038.448 66.043 C 1037.091 67.170 1037.484 67.923 1041.632 72.134 C 1045.971 76.540 1046.239 77.087 1044.852 78.720 C 1039.488 85.033 998.204 132.931 988.191 144.458 C 977.752 156.475 976.250 158.630 977.386 159.958 C 984.403 168.154 998.997 186.315 998.985 186.836 C 998.977 187.201 993.961 189.946 987.838 192.936 C 975.574 198.923 960.419 208.657 952.160 215.849 C 943.987 222.968 944.712 222.822 939.336 218.445 C 936.676 216.279 910.542 193.244 881.259 167.254 C 851.977 141.264 827.646 120.000 827.191 120.000 C 826.736 120.000 817.394 137.213 806.432 158.250 L 786.500 196.500 786.500 159.468 L 786.500 122.435 695.582 151.468 L 604.663 180.500 604.875 188.000 C 604.991 192.125 605.511 205.819 606.029 218.431 C 606.548 231.043 606.813 241.520 606.618 241.715 C 606.320 242.013 575.971 245.961 573.750 245.990 C 573.338 245.996 573.000 246.675 573.000 247.500 C 573.000 249.370 573.927 249.350 592.000 247.089 C 599.975 246.092 606.585 245.336 606.689 245.410 C 606.792 245.483 607.146 250.259 607.474 256.022 C 607.803 261.785 608.307 269.232 608.596 272.572 L 609.121 278.644 624.064 274.658 C 632.282 272.466 639.324 270.990 639.712 271.378 C 640.446 272.113 645.121 319.212 644.519 319.814 C 644.331 320.003 640.986 319.006 637.086 317.599 C 593.438 301.854 544.157 308.442 501.637 335.706 C 497.862 338.126 494.565 339.898 494.311 339.644 C 494.056 339.390 494.611 334.314 495.544 328.364 C 498.027 312.533 497.157 287.250 493.656 273.500 C 487.628 249.824 475.247 227.702 457.827 209.480 C 446.461 197.592 438.323 190.961 424.183 182.069 C 391.639 161.604 366.842 154.337 317.582 150.827 C 270.942 147.504 211.569 157.407 157.500 177.528 C 117.219 192.519 87.630 207.547 44.795 234.774 L 29.090 244.756 41.641 266.128 C 67.371 309.939 80.000 331.848 79.992 332.662 C 79.988 333.123 72.796 337.325 64.011 342.000 C 55.225 346.675 48.028 350.751 48.018 351.059 C 48.008 351.366 48.606 352.446 49.346 353.459 C 50.613 355.192 51.642 354.787 66.911 346.548 C 75.831 341.735 83.299 337.966 83.506 338.173 C 84.761 339.428 117.000 394.061 117.000 394.932 C 117.000 395.520 117.431 396.000 117.957 396.000 C 118.483 396.000 126.237 392.372 135.188 387.937 L 151.462 379.875 152.908 382.927 C 153.703 384.606 154.161 386.151 153.927 386.360 C 153.692 386.570 142.925 391.331 130.000 396.940 L 106.500 407.140 99.500 414.761 C 95.650 418.953 93.175 422.115 94.000 421.789 C 94.825 421.462 101.956 418.419 109.846 415.027 C 117.737 411.635 124.290 409.003 124.410 409.180 C 124.529 409.356 125.891 412.425 127.437 416.000 C 128.983 419.575 130.605 422.890 131.042 423.368 C 131.478 423.845 139.333 420.993 148.498 417.031 C 157.662 413.068 165.242 409.978 165.344 410.163 C 167.932 414.900 205.487 498.019 257.216 613.500 C 280.868 666.300 300.600 710.222 301.067 711.105 C 301.803 712.498 310.854 709.843 369.707 690.974 C 428.741 672.046 437.472 668.996 437.283 667.369 C 437.163 666.341 430.812 641.425 423.169 612.000 C 402.268 531.538 390.708 485.948 391.126 485.629 C 399.236 479.427 411.779 469.162 415.815 465.423 L 421.131 460.500 421.462 478.000 C 421.908 501.630 424.975 514.721 434.931 535.500 C 455.023 577.432 496.097 604.041 544.749 606.646 C 585.771 608.842 630.884 591.868 661.729 562.633 C 664.055 560.428 666.216 558.883 666.532 559.199 C 666.848 559.515 668.288 572.762 669.733 588.637 C 671.177 604.511 672.436 617.620 672.529 617.766 C 672.781 618.162 800.002 599.331 800.510 598.823 C 800.750 598.584 801.015 572.650 801.101 541.194 C 801.190 508.368 801.636 484.000 802.150 484.000 C 802.960 484.000 857.898 511.015 1003.000 582.764 C 1031.325 596.769 1058.213 609.957 1062.750 612.069 L 1071.000 615.908 1071.004 564.204 C 1071.006 535.767 1071.298 506.818 1071.652 499.873 L 1072.296 487.246 1078.898 486.584 C 1104.282 484.040 1143.102 471.998 1169.700 458.417 C 1181.070 452.612 1181.998 452.302 1181.978 454.319 C 1181.966 455.518 1179.547 470.900 1176.602 488.500 C 1173.658 506.100 1171.339 520.609 1171.449 520.742 C 1171.744 521.096 1316.458 543.856 1316.733 543.591 C 1316.862 543.467 1318.608 532.371 1320.613 518.933 C 1322.619 505.495 1324.580 494.143 1324.972 493.708 C 1325.364 493.272 1333.963 508.234 1344.080 526.958 C 1354.197 545.681 1362.706 560.991 1362.987 560.980 C 1363.269 560.970 1368.447 551.321 1374.493 539.539 C 1380.539 527.757 1385.759 518.653 1386.092 519.309 C 1386.425 519.964 1388.431 535.919 1390.549 554.765 C 1392.668 573.611 1394.648 589.404 1394.950 589.860 C 1395.640 590.900 1557.845 619.488 1558.626 618.707 C 1558.941 618.392 1557.791 608.992 1556.070 597.818 C 1554.350 586.643 1552.706 575.700 1552.418 573.500 C 1552.129 571.300 1551.681 568.375 1551.422 567.000 L 1550.951 564.500 1566.725 564.448 C 1589.178 564.374 1609.862 559.945 1629.750 550.952 C 1635.470 548.365 1636.000 548.282 1636.000 549.970 C 1636.000 550.985 1634.625 564.056 1632.943 579.017 C 1631.262 593.979 1630.042 606.376 1630.233 606.566 C 1630.543 606.876 1723.627 620.293 1735.250 621.702 L 1740.000 622.279 1740.009 639.889 C 1740.013 649.575 1740.293 659.792 1740.629 662.594 L 1741.242 667.687 1797.724 685.407 C 1828.789 695.153 1854.456 702.878 1854.761 702.573 C 1855.066 702.268 1888.084 603.352 1928.135 482.759 C 1986.970 305.607 2000.959 262.492 2000.977 258.250 C 2000.990 255.363 2000.784 253.000 2000.520 253.000 C 1999.851 253.000 1851.771 217.049 1850.314 216.532 C 1849.512 216.248 1846.779 225.785 1841.862 246.021 C 1837.866 262.470 1834.468 275.801 1834.312 275.645 C 1834.067 275.401 1827.704 245.053 1822.277 218.255 C 1821.158 212.726 1820.096 209.853 1819.054 209.533 C 1816.311 208.692 1639.965 170.000 1638.873 170.000 C 1638.141 170.000 1638.044 181.635 1638.554 208.102 C 1639.172 240.176 1639.068 246.343 1637.894 247.087 C 1637.127 247.572 1633.757 247.976 1630.404 247.985 C 1627.051 247.993 1620.188 248.292 1615.154 248.650 L 1606.000 249.299 1606.000 264.650 L 1606.000 280.000 1601.461 280.000 C 1593.771 280.000 1577.950 282.009 1568.500 284.186 C 1550.934 288.232 1531.597 296.454 1517.500 305.870 C 1514.200 308.075 1511.223 309.568 1510.885 309.189 C 1510.547 308.810 1504.318 270.700 1497.044 224.500 C 1489.770 178.300 1483.585 139.488 1483.301 138.250 L 1482.783 136.000 1422.459 136.000 C 1365.870 136.000 1362.103 136.108 1361.620 137.750 C 1361.336 138.713 1360.553 143.213 1359.879 147.750 L 1358.654 156.000 1294.957 156.000 L 1231.260 156.000 1230.137 160.250 C 1229.520 162.588 1226.275 182.050 1222.927 203.500 C 1219.579 224.950 1216.650 243.102 1216.417 243.839 C 1216.164 244.642 1214.122 242.844 1211.306 239.339 C 1192.151 215.485 1173.768 200.447 1149.759 188.991 C 1131.061 180.068 1109.910 174.548 1089.608 173.292 C 1081.155 172.770 1079.975 172.491 1081.496 171.379 C 1082.474 170.664 1106.837 157.427 1135.635 141.965 L 1187.995 113.852 1150.877 58.411 C 1130.463 27.918 1113.411 2.754 1112.986 2.491 C 1112.561 2.228 1099.902 16.033 1084.856 33.169 M 316.000 185.992 C 331.957 187.144 353.311 190.286 364.500 193.128 C 385.416 198.442 410.440 212.690 427.392 228.936 C 442.293 243.217 453.200 260.608 458.618 278.723 C 462.168 290.592 463.023 311.113 460.571 325.610 C 457.153 345.813 446.433 371.581 433.256 391.262 C 414.724 418.942 388.410 444.875 359.190 464.255 C 352.960 468.386 350.008 470.938 350.267 471.965 C 350.481 472.809 360.708 512.087 372.995 559.250 C 385.281 606.412 395.109 645.224 394.835 645.498 C 393.473 646.860 321.672 669.067 320.975 668.342 C 320.529 667.879 286.328 591.900 244.971 499.500 C 203.614 407.100 169.650 331.361 169.496 331.191 C 169.341 331.021 161.004 334.992 150.968 340.016 C 135.994 347.512 132.499 348.912 131.482 347.825 C 129.884 346.116 78.142 258.552 77.776 256.938 C 77.112 254.003 123.790 229.031 150.500 218.033 C 209.782 193.622 267.335 182.479 316.000 185.992 M 1789.685 235.386 C 1789.787 235.469 1798.770 277.764 1809.647 329.376 C 1822.019 388.076 1829.701 422.520 1830.162 421.358 C 1830.568 420.336 1839.764 382.600 1850.598 337.500 C 1861.432 292.400 1870.408 255.360 1870.544 255.188 C 1871.137 254.439 1960.276 274.609 1960.658 275.578 C 1961.005 276.461 1834.674 660.734 1833.776 661.524 C 1833.471 661.792 1770.907 643.240 1770.397 642.730 C 1770.034 642.367 1764.997 436.488 1764.999 422.083 C 1765.000 416.904 1764.829 412.854 1764.619 413.083 C 1764.410 413.312 1757.356 452.650 1748.943 500.500 C 1740.530 548.350 1733.286 587.918 1732.844 588.429 C 1732.141 589.243 1665.299 579.449 1664.065 578.351 C 1663.826 578.138 1664.690 566.384 1665.984 552.232 L 1668.338 526.500 1675.651 519.668 C 1700.389 496.557 1717.980 465.395 1725.140 432.000 C 1728.134 418.032 1728.391 391.891 1725.660 379.000 C 1720.608 355.153 1710.429 335.153 1694.892 318.543 L 1688.786 312.017 1691.595 282.044 C 1693.140 265.559 1694.184 251.850 1693.914 251.581 C 1693.644 251.311 1687.928 249.607 1681.211 247.795 C 1674.494 245.983 1668.933 244.159 1668.851 243.743 C 1668.564 242.266 1670.125 212.607 1670.524 211.961 C 1670.831 211.464 1788.783 234.651 1789.685 235.386 M 753.916 229.500 C 755.705 260.300 757.262 285.594 757.377 285.709 C 757.491 285.824 775.791 260.296 798.042 228.979 C 820.294 197.663 838.725 172.038 839.000 172.034 C 839.682 172.026 918.420 247.019 918.811 248.049 C 918.983 248.500 910.208 258.252 899.311 269.722 C 888.415 281.191 863.358 307.566 843.629 328.333 C 823.900 349.100 807.925 366.245 808.129 366.434 C 808.333 366.622 831.873 376.018 860.439 387.314 L 912.379 407.852 915.947 413.786 C 929.201 435.822 949.255 454.858 972.652 467.612 C 988.019 475.988 1010.870 483.370 1029.750 486.056 L 1038.000 487.230 1038.000 525.115 C 1038.000 545.952 1037.774 563.000 1037.499 563.000 C 1037.223 563.000 977.148 533.075 904.000 496.500 C 830.852 459.925 770.763 430.000 770.470 430.000 C 770.177 430.000 769.982 461.388 770.038 499.750 C 770.121 556.785 769.899 569.546 768.820 569.753 C 759.339 571.571 701.460 578.833 700.968 578.267 C 700.602 577.845 699.285 564.795 698.042 549.266 L 695.781 521.033 700.280 512.266 C 729.295 455.738 723.555 392.415 685.599 350.308 L 680.919 345.116 675.984 286.916 C 673.270 254.906 670.854 228.521 670.616 228.282 C 670.377 228.043 663.448 229.618 655.218 231.781 L 640.255 235.714 639.628 229.710 C 639.282 226.408 639.000 219.515 639.000 214.392 L 639.000 205.077 642.750 204.030 C 644.813 203.454 669.675 196.059 698.000 187.596 C 726.325 179.133 749.761 172.499 750.081 172.854 C 750.401 173.209 752.126 198.700 753.916 229.500 M 1456.019 169.250 C 1456.029 169.388 1461.821 207.037 1468.890 252.915 L 1481.744 336.331 1475.539 344.177 C 1472.126 348.493 1466.545 356.707 1463.135 362.430 C 1433.816 411.651 1433.577 467.922 1462.504 511.500 C 1471.972 525.762 1490.893 542.424 1506.472 550.217 C 1510.888 552.425 1514.692 554.409 1514.926 554.625 C 1515.160 554.842 1516.094 559.739 1517.001 565.509 C 1518.650 575.990 1518.649 576.000 1516.576 576.003 C 1514.240 576.007 1427.678 562.905 1427.181 562.473 C 1427.006 562.320 1421.494 526.718 1414.934 483.357 C 1408.374 439.995 1402.892 404.198 1402.753 403.808 C 1402.614 403.418 1397.602 415.788 1391.616 431.299 C 1371.082 484.508 1368.779 490.179 1368.047 489.340 C 1367.643 488.878 1356.124 464.316 1342.448 434.759 C 1328.772 405.201 1317.284 381.351 1316.919 381.759 C 1316.554 382.166 1311.871 410.400 1306.513 444.500 C 1301.155 478.600 1296.483 506.817 1296.130 507.205 C 1295.548 507.846 1211.416 493.760 1210.551 492.877 C 1210.348 492.670 1212.898 476.525 1216.218 457.000 L 1222.255 421.500 1240.627 402.717 C 1250.732 392.386 1258.971 383.611 1258.936 383.217 C 1258.901 382.823 1253.051 377.363 1245.936 371.084 C 1238.821 364.806 1233.000 358.987 1233.000 358.154 C 1233.000 357.321 1239.300 319.179 1247.000 273.394 C 1254.700 227.609 1261.000 189.660 1261.000 189.063 C 1261.000 188.297 1273.798 188.055 1304.681 188.239 L 1348.362 188.500 1358.898 246.199 C 1364.694 277.934 1369.547 303.786 1369.683 303.650 C 1369.820 303.514 1375.141 273.949 1381.509 237.951 C 1387.877 201.953 1393.323 171.713 1393.611 170.750 C 1394.095 169.132 1396.474 169.000 1425.067 169.000 C 1442.080 169.000 1456.008 169.113 1456.019 169.250 M 1105.401 209.454 C 1131.239 215.364 1150.871 225.975 1169.466 244.082 L 1179.431 253.787 1173.779 260.143 C 1170.670 263.640 1145.686 290.350 1118.259 319.500 L 1068.391 372.500 1077.946 372.368 C 1101.232 372.046 1122.629 362.424 1141.122 343.960 L 1150.745 334.353 1179.838 360.426 L 1208.931 386.500 1199.612 395.500 C 1174.490 419.761 1142.810 436.555 1102.466 446.998 C 1069.996 455.402 1035.078 455.064 1008.705 446.090 C 962.628 430.409 935.112 396.257 929.929 348.316 C 926.156 313.410 937.949 278.853 962.421 253.103 C 983.878 230.526 1016.511 214.197 1051.500 208.527 C 1063.268 206.620 1095.429 207.174 1105.401 209.454 M 615.500 338.917 C 650.743 348.017 675.412 371.794 685.619 406.500 C 689.155 418.523 690.064 441.578 687.569 455.961 C 675.919 523.118 611.274 576.917 546.083 573.709 C 501.095 571.495 466.477 543.603 454.820 500.175 C 451.870 489.189 451.177 465.701 453.444 453.626 C 460.217 417.566 481.082 385.107 512.173 362.263 C 529.356 349.638 549.069 341.307 571.000 337.403 C 581.893 335.463 605.195 336.256 615.500 338.917 M 1621.119 311.468 C 1658.860 318.077 1686.115 342.718 1695.759 378.950 C 1697.953 387.192 1698.304 390.623 1698.327 404.000 C 1698.362 424.812 1695.059 438.869 1685.777 457.409 C 1655.992 516.903 1586.989 548.965 1531.750 528.977 C 1518.123 524.046 1508.686 517.934 1498.000 507.117 C 1487.025 496.006 1481.410 486.927 1476.380 472.158 C 1472.377 460.402 1471.017 452.362 1471.008 440.381 C 1470.974 399.900 1495.310 357.217 1532.552 332.437 C 1559.812 314.298 1592.752 306.500 1621.119 311.468 M 1127.000 77.733 C 1137.725 92.388 1146.500 104.753 1146.500 105.212 C 1146.500 106.036 1034.560 162.000 1032.912 162.000 C 1031.711 162.000 1024.826 151.021 1025.243 149.770 C 1025.687 148.439 1106.337 51.097 1107.000 51.092 C 1107.275 51.090 1116.275 63.079 1127.000 77.733 M 897.895 362.912 C 898.508 365.888 898.870 368.463 898.700 368.634 C 898.529 368.804 889.935 365.705 879.602 361.747 L 860.815 354.549 878.158 337.525 L 895.500 320.500 896.140 339.000 C 896.492 349.175 897.281 359.935 897.895 362.912 M 1206.941 303.159 C 1204.626 317.647 1202.454 329.804 1202.115 330.175 C 1201.479 330.873 1179.808 311.923 1179.217 310.152 C 1178.850 309.051 1209.982 275.649 1210.703 276.370 C 1210.950 276.617 1209.257 288.672 1206.941 303.159 M 1652.116 273.542 C 1668.005 277.089 1667.203 276.741 1666.613 279.837 C 1666.334 281.301 1665.820 285.246 1665.472 288.602 L 1664.838 294.704 1655.820 290.816 C 1647.509 287.233 1633.215 283.098 1623.500 281.467 L 1619.500 280.795 1629.000 275.949 C 1634.225 273.283 1639.002 271.079 1639.616 271.051 C 1640.229 271.023 1645.854 272.144 1652.116 273.542 "/></g>
<g fill="#FFCB05FF" stroke="#FFCB05FF">
<path d="M 257.500 202.611 C 255.850 202.846 248.907 203.727 242.070 204.569 C 195.287 210.331 145.024 226.997 93.250 253.916 C 86.513 257.418 81.000 260.640 81.000 261.074 C 81.000 262.031 130.629 346.029 132.010 347.410 C 132.641 348.041 139.447 345.182 151.370 339.278 L 169.758 330.172 170.979 332.836 C 171.651 334.301 205.064 408.850 245.230 498.500 C 285.397 588.150 318.989 663.115 319.880 665.089 L 321.500 668.677 348.833 659.922 C 363.867 655.106 376.310 651.017 376.486 650.833 C 376.661 650.650 366.710 612.726 354.371 566.557 C 337.213 502.354 332.239 482.441 333.219 481.877 C 333.923 481.471 337.650 478.846 341.500 476.043 C 345.350 473.240 353.046 467.843 358.602 464.050 C 384.962 446.055 405.380 426.978 416.723 409.746 C 429.620 390.153 437.676 372.354 442.760 352.217 C 445.217 342.489 445.463 339.839 445.425 323.500 C 445.376 302.513 443.973 295.699 436.499 280.169 C 425.071 256.424 410.330 241.064 383.000 224.425 C 357.666 209.000 331.225 203.020 286.000 202.486 C 271.975 202.320 259.150 202.377 257.500 202.611 M 359.000 292.523 C 367.811 295.195 376.013 300.053 382.594 306.500 C 392.067 315.778 396.536 326.311 397.657 342.002 C 399.220 363.875 390.894 384.167 373.029 402.028 C 363.718 411.338 324.719 441.241 323.642 439.896 C 322.367 438.305 285.000 314.544 285.000 311.913 C 285.000 311.229 287.354 307.574 290.230 303.790 C 294.633 297.998 295.640 297.154 296.591 298.455 C 297.589 299.821 298.473 299.660 304.168 297.078 C 320.944 289.471 342.917 287.646 359.000 292.523 "/></g>
<g fill="#FFCB05FF" stroke="#FFCB05FF">
<path d="M 1669.642 234.750 C 1668.326 242.709 1668.670 243.835 1672.750 244.927 C 1674.813 245.479 1680.550 247.000 1685.500 248.308 C 1692.596 250.183 1694.553 251.090 1694.752 252.593 C 1694.891 253.642 1693.754 267.369 1692.227 283.098 L 1689.450 311.697 1695.801 318.598 C 1737.108 363.485 1739.448 432.630 1701.584 489.467 C 1693.538 501.544 1682.216 515.008 1674.217 522.013 L 1669.093 526.500 1666.622 551.992 C 1665.262 566.012 1664.260 577.593 1664.395 577.728 C 1664.921 578.254 1719.526 586.760 1719.930 586.379 C 1720.166 586.156 1726.727 549.947 1734.509 505.916 L 1748.658 425.857 1756.710 417.805 L 1764.762 409.753 1765.383 423.626 C 1765.725 431.257 1766.915 480.025 1768.028 532.000 C 1769.141 583.975 1770.298 630.123 1770.599 634.551 L 1771.146 642.602 1797.234 650.340 C 1811.582 654.597 1823.652 657.724 1824.056 657.290 C 1825.108 656.159 1945.235 291.902 1944.724 291.391 C 1944.078 290.745 1866.954 273.704 1866.598 274.129 C 1866.427 274.333 1858.255 308.025 1848.436 349.000 L 1830.585 423.500 1822.042 432.274 L 1813.500 441.048 1793.677 346.774 C 1782.774 294.923 1773.549 252.201 1773.177 251.835 C 1772.626 251.294 1672.963 230.994 1670.881 230.999 C 1670.540 230.999 1669.983 232.688 1669.642 234.750 "/></g>
<g fill="#FFCB05FF" stroke="#FFCB05FF">
<path d="M 720.000 192.465 C 714.225 194.257 693.863 200.368 674.750 206.045 L 640.000 216.366 640.000 225.751 C 640.000 234.213 640.172 235.085 641.750 234.632 C 649.827 232.313 671.266 226.944 671.468 227.190 C 671.608 227.360 673.909 253.785 676.581 285.912 L 681.439 344.324 687.779 351.912 C 704.057 371.396 713.604 391.895 717.545 415.822 C 720.030 430.910 719.148 457.504 715.681 472.000 C 712.334 485.997 707.866 498.308 701.600 510.799 L 696.433 521.099 698.786 549.286 C 700.080 564.788 701.325 577.658 701.552 577.886 C 701.935 578.268 746.700 572.523 751.750 571.443 L 754.000 570.962 754.015 508.231 L 754.030 445.500 762.265 437.127 L 770.500 428.755 895.751 491.377 C 964.639 525.820 1021.227 554.000 1021.501 554.000 C 1021.775 554.000 1022.000 542.587 1022.000 528.638 L 1022.000 503.275 1016.250 502.601 C 990.657 499.600 963.220 489.388 941.842 474.908 C 929.197 466.343 912.176 449.179 904.248 437.000 C 900.847 431.775 897.263 426.538 896.282 425.363 C 895.135 423.988 876.425 416.027 843.750 403.011 C 815.838 391.892 793.000 382.551 793.000 382.253 C 793.000 381.504 800.966 372.968 855.580 315.200 C 881.734 287.534 902.959 264.377 902.746 263.739 C 902.534 263.101 885.291 246.513 864.430 226.878 C 829.230 193.746 826.383 191.295 824.875 192.838 C 823.982 193.752 808.735 214.975 790.994 240.000 C 773.253 265.025 758.211 285.950 757.567 286.500 C 756.924 287.050 753.102 292.132 749.074 297.792 C 745.047 303.453 741.597 307.931 741.409 307.742 C 741.221 307.554 739.705 283.573 738.041 254.450 C 734.274 188.543 734.313 188.971 732.170 189.104 C 731.252 189.161 725.775 190.673 720.000 192.465 "/></g>
<g fill="#FFCB05FF" stroke="#FFCB05FF">
<path d="M 1380.774 245.750 L 1370.149 305.500 1362.140 313.983 C 1357.736 318.648 1353.943 322.248 1353.712 321.983 C 1353.480 321.717 1348.702 296.075 1343.094 265.000 C 1337.485 233.925 1332.665 207.713 1332.381 206.750 C 1331.902 205.125 1329.267 205.000 1295.433 205.000 C 1275.395 205.000 1258.987 205.338 1258.971 205.750 C 1258.955 206.163 1253.167 240.817 1246.109 282.760 L 1233.276 359.020 1246.734 371.138 L 1260.193 383.256 1253.353 390.378 C 1249.591 394.295 1241.194 402.935 1234.693 409.578 L 1222.873 421.657 1216.883 456.942 C 1213.589 476.349 1211.030 492.341 1211.197 492.481 C 1211.984 493.143 1282.372 504.961 1282.825 504.508 C 1283.110 504.223 1287.203 479.722 1291.921 450.060 L 1300.500 396.129 1308.893 387.540 C 1313.509 382.817 1317.364 379.075 1317.460 379.226 C 1317.556 379.377 1326.781 399.300 1337.960 423.500 C 1349.139 447.700 1359.465 469.862 1360.908 472.750 L 1363.530 478.000 1374.972 448.250 L 1386.414 418.500 1394.648 410.016 C 1400.329 404.163 1403.032 401.992 1403.362 403.016 C 1403.625 403.832 1409.119 439.825 1415.572 483.000 C 1422.024 526.175 1427.414 561.641 1427.549 561.814 C 1427.684 561.986 1442.353 564.336 1460.147 567.034 C 1477.941 569.733 1493.963 572.200 1495.750 572.516 C 1500.960 573.437 1499.582 571.320 1492.750 567.905 C 1459.846 551.457 1436.574 521.839 1427.918 485.391 C 1418.589 446.112 1429.756 399.040 1456.823 363.551 C 1460.495 358.735 1463.913 354.221 1464.418 353.519 C 1465.132 352.527 1450.323 251.824 1440.261 189.250 L 1439.738 186.000 1415.568 186.000 L 1391.398 186.000 1380.774 245.750 "/></g>
<g fill="#FFCB05FF" stroke="#FFCB05FF">
<path d="M 1039.000 224.445 C 1013.221 228.175 989.697 236.817 970.160 249.733 C 960.009 256.444 956.493 259.877 950.164 269.259 C 933.096 294.560 926.833 323.724 931.564 355.872 C 937.901 398.920 965.655 430.909 1009.340 445.512 C 1046.841 458.049 1091.991 454.001 1140.000 433.799 C 1156.110 427.020 1177.091 414.557 1187.500 405.583 C 1191.491 402.143 1191.496 402.131 1189.500 400.183 C 1188.400 399.109 1175.644 387.578 1161.153 374.558 L 1134.805 350.887 1125.153 360.236 C 1119.844 365.379 1113.328 371.074 1110.673 372.894 C 1098.134 381.488 1077.544 388.308 1060.024 389.670 L 1051.548 390.330 1060.024 381.053 C 1064.686 375.951 1089.782 349.075 1115.793 321.329 L 1163.087 270.881 1159.006 266.007 C 1142.964 246.847 1114.621 230.922 1086.884 225.484 C 1075.445 223.242 1050.983 222.711 1039.000 224.445 M 1077.676 261.204 C 1085.369 263.931 1096.674 270.926 1101.402 275.884 C 1103.974 278.581 1104.145 279.130 1102.902 280.701 C 1099.792 284.635 1020.740 374.000 1020.371 374.000 C 1020.152 374.000 1019.141 373.481 1018.125 372.846 C 1016.573 371.877 1015.343 372.360 1010.463 375.855 L 1004.649 380.018 1002.203 377.759 C 997.511 373.425 990.032 361.707 987.123 354.132 C 981.973 340.723 980.986 326.795 984.207 313.000 C 986.892 301.505 996.138 285.971 1005.904 276.547 C 1010.353 272.253 1010.878 272.401 1008.376 277.240 C 1006.943 280.010 1007.504 279.709 1013.126 274.691 C 1020.563 268.053 1030.809 262.381 1039.995 259.819 C 1049.766 257.093 1067.966 257.762 1077.676 261.204 "/></g>
<g fill="#FFCB05FF" stroke="#FFCB05FF">
<path d="M 563.500 352.634 C 548.371 354.255 529.211 359.847 516.015 366.492 C 505.291 371.893 491.610 381.552 486.017 387.672 C 471.561 403.489 459.585 427.669 454.404 451.500 C 453.171 457.170 452.674 463.869 452.699 474.500 C 452.729 487.423 453.098 490.885 455.363 499.500 C 465.229 537.026 492.640 563.508 529.487 571.113 C 572.724 580.037 627.808 558.743 650.175 524.458 C 664.711 502.176 673.006 475.865 672.996 452.074 C 672.975 402.668 642.574 364.242 595.889 354.614 C 588.083 353.005 570.230 351.913 563.500 352.634 M 593.000 363.728 C 593.000 364.904 577.651 380.000 576.455 380.000 C 575.854 380.000 572.997 380.703 570.105 381.562 C 565.697 382.871 564.616 383.674 563.423 386.529 C 562.640 388.403 562.000 392.803 562.000 396.308 C 562.000 411.652 574.070 424.163 591.628 427.021 C 597.965 428.052 603.038 427.596 610.193 425.350 C 614.162 424.105 615.065 423.333 616.050 420.347 C 616.691 418.406 617.040 413.713 616.826 409.919 L 616.436 403.020 624.274 395.260 C 631.872 387.738 632.160 387.561 633.669 389.500 C 638.210 395.334 641.971 407.631 641.988 416.701 C 642.015 430.811 637.308 442.225 625.228 457.338 C 612.460 473.312 598.629 482.875 582.226 487.070 C 545.094 496.567 507.749 469.759 507.600 433.500 C 507.519 413.867 519.256 394.505 541.318 377.881 C 555.832 366.944 566.566 363.149 583.250 363.055 C 588.613 363.025 593.000 363.328 593.000 363.728 "/></g>
<g fill="#FFCB05FF" stroke="#FFCB05FF">
<path d="M 1570.000 327.469 C 1550.566 330.698 1533.066 337.692 1516.212 348.966 C 1503.142 357.708 1493.576 369.449 1484.444 387.958 C 1474.895 407.311 1471.540 422.773 1472.284 444.000 C 1472.838 459.807 1474.242 466.625 1479.526 479.185 C 1487.895 499.074 1505.250 516.936 1524.500 525.473 C 1537.296 531.147 1546.510 533.173 1562.000 533.716 C 1589.671 534.687 1612.381 528.112 1636.843 512.050 C 1648.240 504.566 1654.361 498.570 1661.055 488.329 C 1675.304 466.531 1682.190 444.508 1682.263 420.500 C 1682.307 405.974 1680.601 396.074 1676.008 384.216 C 1665.110 356.075 1639.762 334.847 1609.485 328.506 C 1598.475 326.199 1580.485 325.727 1570.000 327.469 M 1603.166 334.602 C 1604.446 334.970 1603.106 336.901 1597.379 342.934 C 1590.173 350.528 1589.712 350.828 1583.425 352.014 C 1573.881 353.815 1572.631 355.181 1572.169 364.316 C 1571.705 373.523 1573.634 380.044 1578.509 385.739 C 1588.248 397.117 1604.541 401.519 1619.884 396.918 C 1625.534 395.223 1627.381 391.326 1626.807 382.311 L 1626.408 376.050 1634.580 367.921 L 1642.751 359.792 1645.435 365.277 C 1650.801 376.246 1652.308 387.770 1649.870 399.201 C 1645.719 418.661 1625.587 442.081 1603.339 453.333 C 1573.341 468.505 1535.994 456.842 1522.218 428.000 C 1512.836 408.356 1514.880 391.854 1529.340 370.500 C 1541.394 352.699 1561.380 338.010 1577.500 335.105 C 1580.800 334.510 1584.625 333.834 1586.000 333.604 C 1588.724 333.146 1600.486 333.830 1603.166 334.602 "/></g>
<g fill="#21386EFF" stroke="#21386EFF">
<path d="M 147.838 417.267 C 138.674 421.232 131.293 424.706 131.437 424.988 C 131.580 425.270 162.209 494.800 199.502 579.500 C 236.794 664.200 267.609 733.849 267.979 734.276 C 268.349 734.703 299.267 725.174 336.687 713.101 L 404.721 691.150 419.880 680.825 C 428.217 675.146 434.242 670.657 433.269 670.849 C 432.296 671.042 402.344 680.540 366.709 691.958 C 310.394 710.001 301.808 712.506 301.071 711.108 C 300.605 710.224 278.846 661.800 252.718 603.500 C 226.590 545.200 197.016 479.500 186.999 457.500 C 176.982 435.500 168.047 415.817 167.143 413.760 C 166.239 411.703 165.275 410.029 165.000 410.039 C 164.725 410.050 157.002 413.302 147.838 417.267 "/></g>
<g fill="#21386EFF" stroke="#21386EFF">
<path d="M 1169.423 458.551 C 1143.002 472.043 1104.192 484.048 1078.750 486.599 L 1072.000 487.276 1072.000 496.138 C 1072.000 506.463 1071.198 506.006 1084.000 502.970 C 1102.917 498.483 1128.325 488.087 1143.750 478.522 C 1146.088 477.073 1147.991 476.250 1147.980 476.693 C 1147.968 477.137 1145.746 490.990 1143.041 507.478 C 1140.336 523.966 1138.274 537.607 1138.458 537.792 C 1138.643 537.976 1171.353 543.339 1211.147 549.709 L 1283.500 561.290 1288.000 558.817 C 1290.475 557.457 1296.792 554.037 1302.038 551.218 L 1311.577 546.092 1319.792 561.296 C 1324.311 569.658 1328.375 577.070 1328.823 577.766 C 1329.429 578.707 1332.915 577.220 1342.430 571.961 C 1349.467 568.072 1355.414 565.080 1355.646 565.313 C 1355.878 565.545 1357.217 575.132 1358.620 586.617 C 1360.024 598.103 1361.360 607.689 1361.590 607.921 C 1362.146 608.480 1522.915 636.987 1525.556 636.994 C 1527.812 637.001 1559.911 619.774 1558.421 619.356 C 1557.915 619.214 1521.050 612.705 1476.500 604.892 C 1431.950 597.079 1395.253 590.314 1394.950 589.859 C 1394.648 589.403 1392.668 573.611 1390.549 554.765 C 1388.431 535.919 1386.425 519.964 1386.092 519.309 C 1385.759 518.653 1380.539 527.757 1374.493 539.539 C 1368.447 551.321 1363.269 560.970 1362.987 560.980 C 1362.706 560.991 1354.197 545.681 1344.080 526.958 C 1333.963 508.234 1325.364 493.272 1324.972 493.708 C 1324.580 494.143 1322.619 505.495 1320.613 518.933 C 1318.608 532.371 1316.862 543.467 1316.733 543.591 C 1316.458 543.856 1171.744 521.096 1171.449 520.742 C 1171.339 520.609 1173.667 506.100 1176.624 488.500 C 1179.580 470.900 1181.887 455.574 1181.749 454.442 C 1181.520 452.553 1180.512 452.889 1169.423 458.551 "/></g>
<g fill="#21386EFF" stroke="#21386EFF">
<path d="M 415.815 465.423 C 411.769 469.171 399.496 479.216 391.123 485.632 C 390.916 485.790 394.881 502.026 399.935 521.710 C 410.064 561.162 410.705 562.744 423.343 579.417 C 442.591 604.811 467.635 620.769 499.000 627.625 C 511.748 630.411 539.803 630.187 553.688 627.188 C 579.090 621.701 604.542 609.113 626.845 591.007 C 630.334 588.174 633.440 586.107 633.747 586.414 C 634.054 586.721 635.293 597.785 636.500 611.000 C 637.707 624.215 638.876 635.191 639.097 635.391 C 639.319 635.591 668.273 631.485 703.439 626.268 L 767.378 616.781 783.735 608.141 C 792.731 603.388 799.059 599.606 797.796 599.736 C 796.533 599.865 767.868 604.034 734.097 608.999 C 700.325 613.964 672.618 617.908 672.526 617.763 C 672.434 617.618 671.177 604.511 669.733 588.637 C 668.288 572.762 666.848 559.515 666.532 559.199 C 666.216 558.883 664.055 560.428 661.729 562.633 C 630.884 591.868 585.771 608.842 544.749 606.646 C 483.979 603.393 438.070 564.431 423.800 504.000 C 422.297 497.636 421.709 491.102 421.462 478.000 L 421.131 460.500 415.815 465.423 "/></g>
<g fill="#21386EFF" stroke="#21386EFF">
<path d="M 1629.500 551.060 C 1609.839 559.947 1589.077 564.375 1566.725 564.448 L 1550.951 564.500 1551.438 567.000 C 1551.705 568.375 1552.214 571.617 1552.569 574.204 C 1553.173 578.612 1553.379 578.880 1555.857 578.470 C 1557.310 578.230 1562.100 577.528 1566.500 576.911 C 1575.948 575.586 1588.493 572.083 1596.542 568.524 C 1599.713 567.121 1602.513 566.180 1602.765 566.431 C 1603.016 566.683 1601.786 579.553 1600.032 595.032 C 1598.277 610.510 1597.108 623.441 1597.433 623.767 C 1597.759 624.092 1622.150 627.843 1651.636 632.103 C 1681.122 636.362 1705.611 640.219 1706.057 640.674 C 1706.502 641.128 1707.009 651.026 1707.183 662.669 C 1707.357 674.311 1707.810 684.146 1708.189 684.524 C 1708.568 684.902 1734.144 693.271 1765.024 703.123 L 1821.170 721.035 1837.653 712.345 C 1847.993 706.893 1853.644 703.389 1852.817 702.942 C 1852.093 702.550 1826.692 694.458 1796.371 684.960 L 1741.242 667.692 1740.630 662.596 C 1740.293 659.793 1740.013 649.575 1740.009 639.889 L 1740.000 622.279 1735.250 621.702 C 1723.655 620.296 1630.543 606.877 1630.234 606.567 C 1630.044 606.378 1631.289 593.753 1632.999 578.511 C 1634.709 563.270 1635.971 550.249 1635.804 549.574 C 1635.592 548.718 1633.691 549.166 1629.500 551.060 "/></g>
<g fill="#3466AFFF" stroke="#3466AFFF">
<path d="M 326.798 291.013 C 318.898 292.264 310.682 294.735 302.890 298.202 L 296.279 301.143 302.166 321.321 C 307.878 340.899 335.079 429.124 335.634 429.871 C 336.167 430.589 358.167 414.599 366.133 407.704 C 381.420 394.473 392.250 377.793 395.485 362.500 C 398.499 348.250 396.783 330.268 391.336 319.017 C 385.709 307.397 371.252 296.410 356.465 292.516 C 349.040 290.561 334.348 289.816 326.798 291.013 M 355.067 320.153 C 366.550 325.452 370.581 332.774 370.397 348.000 C 370.236 361.345 366.397 369.920 355.096 382.180 C 352.399 385.106 350.008 387.275 349.783 387.000 C 349.171 386.253 332.985 333.580 330.905 325.569 C 329.916 321.756 329.365 318.219 329.681 317.707 C 329.999 317.192 334.543 316.957 339.878 317.181 C 347.523 317.501 350.644 318.112 355.067 320.153 "/></g>
<g fill="#21386EFF" stroke="#21386EFF">
<path d="M 801.343 500.667 C 801.705 509.834 802.113 517.445 802.250 517.580 C 803.071 518.389 1037.426 634.000 1038.245 634.000 C 1038.796 634.000 1046.475 630.100 1055.309 625.333 L 1071.371 616.666 1036.935 599.545 C 939.626 551.161 803.031 484.000 801.934 484.000 C 800.960 484.000 800.830 487.664 801.343 500.667 "/></g>
<g fill="#C7A008FF" stroke="#C7A008FF">
<path d="M 1392.854 177.750 L 1391.500 185.500 1415.622 185.767 L 1439.744 186.034 1440.264 189.267 C 1450.329 251.864 1465.132 352.527 1464.418 353.519 C 1463.913 354.221 1460.495 358.735 1456.823 363.551 C 1429.756 399.040 1418.589 446.112 1427.918 485.391 C 1436.564 521.795 1459.854 551.464 1492.656 567.857 C 1496.041 569.549 1498.967 571.402 1499.158 571.975 C 1499.474 572.923 1516.994 576.340 1517.736 575.598 C 1517.911 575.423 1517.368 571.054 1516.531 565.890 C 1515.693 560.725 1515.006 556.184 1515.004 555.798 C 1515.002 555.413 1511.217 553.222 1506.594 550.931 C 1474.541 535.049 1450.181 502.325 1442.625 465.000 C 1434.682 425.764 1446.757 380.587 1474.918 344.185 L 1481.105 336.188 1468.328 253.094 L 1455.552 170.000 1424.880 170.000 L 1394.208 170.000 1392.854 177.750 "/></g>
<g fill="#C7A008FF" stroke="#C7A008FF">
<path d="M 278.500 186.577 C 276.850 186.804 270.550 187.480 264.500 188.080 C 213.626 193.128 149.544 214.865 96.605 245.029 C 78.020 255.619 77.306 256.177 79.100 258.710 C 80.457 260.625 80.882 260.484 93.003 254.093 C 142.896 227.784 191.319 211.613 242.000 204.334 C 261.378 201.551 305.581 201.801 324.500 204.801 C 351.123 209.022 365.774 213.937 383.000 224.425 C 410.330 241.064 425.071 256.424 436.499 280.169 C 443.973 295.699 445.376 302.513 445.425 323.500 C 445.463 339.839 445.217 342.489 442.760 352.217 C 437.028 374.919 425.212 399.397 410.913 418.189 L 406.873 423.500 411.454 418.500 C 413.973 415.750 419.407 409.140 423.529 403.811 C 451.277 367.934 465.257 326.958 461.006 293.962 C 455.967 254.859 429.266 222.122 385.500 201.387 C 365.775 192.043 338.198 187.069 303.000 186.508 C 291.175 186.320 280.150 186.351 278.500 186.577 "/></g>
<g fill="#3466AFFF" stroke="#3466AFFF">
<path d="M 1049.500 258.626 C 1048.400 258.842 1045.025 259.504 1042.000 260.095 C 1021.244 264.153 1001.973 282.509 995.381 304.500 C 992.910 312.740 992.910 330.260 995.381 338.500 C 998.435 348.687 1003.925 357.965 1011.507 365.750 C 1015.391 369.738 1019.082 373.000 1019.710 373.000 C 1020.998 373.000 1103.000 280.540 1103.000 279.088 C 1103.000 277.062 1092.069 268.684 1084.499 264.909 C 1073.943 259.646 1058.448 256.864 1049.500 258.626 M 1068.646 282.326 L 1071.791 283.500 1046.804 312.000 C 1033.061 327.675 1021.435 340.641 1020.967 340.814 C 1019.488 341.360 1017.059 335.381 1015.817 328.141 C 1013.623 315.343 1017.755 302.245 1026.683 293.700 C 1036.974 283.850 1043.658 281.025 1056.500 281.100 C 1061.450 281.129 1066.916 281.680 1068.646 282.326 "/></g>
<g fill="#3466AFFF" stroke="#3466AFFF">
<path d="M 1577.500 335.642 C 1557.455 339.879 1540.430 354.897 1534.851 373.263 C 1532.148 382.165 1532.587 396.501 1535.840 405.500 C 1544.051 428.215 1566.086 442.940 1591.936 442.985 C 1608.804 443.015 1622.801 437.283 1634.537 425.541 C 1645.354 414.718 1650.218 402.955 1650.143 387.803 C 1650.102 379.405 1649.058 374.493 1645.772 367.231 L 1643.630 362.500 1643.354 368.324 C 1642.810 379.818 1635.606 390.100 1624.160 395.721 C 1619.012 398.248 1617.504 398.500 1607.500 398.500 C 1597.635 398.500 1595.905 398.221 1590.730 395.796 C 1570.123 386.140 1564.825 362.375 1579.627 345.991 C 1583.211 342.024 1593.782 336.000 1597.160 336.000 C 1598.172 336.000 1599.000 335.550 1599.000 335.000 C 1599.000 333.522 1585.643 333.921 1577.500 335.642 "/></g>
<g fill="#3466AFFF" stroke="#3466AFFF">
<path d="M 573.500 364.040 C 560.431 365.753 547.460 372.531 537.866 382.660 C 528.568 392.477 524.000 403.780 524.000 416.971 C 524.000 432.094 529.226 444.328 540.460 455.503 C 552.084 467.065 564.926 472.141 582.500 472.118 C 600.467 472.094 612.963 467.084 625.095 455.040 C 637.172 443.051 641.616 431.434 640.831 413.899 C 640.469 405.800 639.933 403.467 636.958 397.034 L 633.505 389.568 633.347 396.332 C 632.726 422.810 598.894 437.356 575.244 421.313 C 558.626 410.041 556.279 388.626 570.140 374.765 C 574.961 369.943 583.670 365.042 587.500 364.994 C 589.158 364.974 589.244 364.804 588.000 364.000 C 586.291 362.896 582.143 362.907 573.500 364.040 "/></g>
<g fill="#C7A008FF" stroke="#C7A008FF">
<path d="M 800.225 374.274 C 796.251 378.274 793.000 381.828 793.000 382.171 C 793.000 382.514 815.838 391.892 843.750 403.011 C 876.425 416.027 895.135 423.988 896.282 425.363 C 897.263 426.538 900.847 431.775 904.248 437.000 C 912.176 449.179 929.197 466.343 941.842 474.908 C 963.220 489.388 990.657 499.600 1016.250 502.601 L 1022.000 503.275 1022.000 528.918 L 1022.000 554.561 1029.517 558.281 C 1033.651 560.326 1037.256 562.000 1037.529 562.000 C 1037.801 562.000 1037.906 545.262 1037.762 524.804 L 1037.500 487.608 1028.500 486.317 C 1002.778 482.629 976.710 472.446 956.401 458.155 C 941.636 447.766 924.889 429.753 915.636 414.308 C 912.382 408.877 911.285 407.874 906.713 406.145 C 903.846 405.061 880.407 395.810 854.627 385.587 C 828.847 375.364 807.686 367.000 807.602 367.000 C 807.518 367.000 804.199 370.273 800.225 374.274 "/></g>
<g fill="#C7A008FF" stroke="#C7A008FF">
<path d="M 1670.642 215.750 C 1670.301 217.813 1670.017 222.021 1670.011 225.102 L 1670.000 230.704 1721.250 240.935 C 1749.438 246.562 1772.805 251.467 1773.177 251.833 C 1773.549 252.200 1782.774 294.905 1793.677 346.733 L 1813.500 440.966 1821.405 433.071 L 1829.309 425.176 1809.467 330.838 C 1798.554 278.952 1789.486 236.314 1789.316 236.086 C 1789.060 235.744 1673.831 212.145 1671.881 212.035 C 1671.540 212.016 1670.983 213.688 1670.642 215.750 "/></g>
<g fill="#C7A008FF" stroke="#C7A008FF">
<path d="M 1870.689 256.750 C 1869.954 258.034 1866.807 273.141 1867.194 273.528 C 1867.396 273.729 1884.828 277.737 1905.933 282.433 C 1927.038 287.130 1944.495 291.162 1944.727 291.394 C 1944.959 291.626 1918.066 373.870 1884.965 474.158 C 1851.864 574.446 1824.718 656.894 1824.641 657.375 C 1824.501 658.245 1832.824 661.530 1833.456 660.854 C 1833.639 660.659 1862.240 574.332 1897.015 469.015 C 1931.791 363.699 1960.432 277.037 1960.664 276.434 C 1960.933 275.732 1945.325 271.861 1917.253 265.669 C 1893.145 260.351 1872.903 256.000 1872.270 256.000 C 1871.636 256.000 1870.925 256.338 1870.689 256.750 "/></g>
<g fill="#C7A008FF" stroke="#C7A008FF">
<path d="M 567.993 338.485 C 542.208 343.345 516.619 356.916 496.564 376.365 C 491.383 381.389 488.124 384.695 489.322 383.712 C 494.296 379.629 509.838 369.603 516.015 366.492 C 525.192 361.871 541.322 356.393 551.759 354.352 C 563.376 352.081 584.673 352.122 595.389 354.435 C 643.008 364.716 672.975 402.418 672.996 452.074 C 673.008 479.714 661.984 510.150 643.416 533.744 C 639.961 538.135 641.115 537.206 648.280 529.829 C 673.472 503.892 689.022 467.815 688.994 435.372 C 688.974 411.868 680.514 387.712 666.246 370.414 C 655.260 357.095 635.654 344.841 617.500 339.948 C 607.073 337.138 579.468 336.322 567.993 338.485 "/></g>
<g fill="#C7A008FF" stroke="#C7A008FF">
<path d="M 1593.000 311.071 C 1564.794 313.495 1536.172 326.851 1514.000 347.936 L 1505.500 356.020 1515.249 349.527 C 1563.490 317.401 1619.124 318.526 1654.730 352.348 C 1690.844 386.653 1691.845 444.887 1657.170 494.306 C 1655.269 497.015 1656.357 496.221 1660.948 491.548 C 1679.256 472.910 1691.796 448.944 1696.553 423.500 C 1698.846 411.236 1698.101 388.717 1695.052 378.137 C 1687.591 352.243 1673.328 334.158 1650.824 322.059 C 1634.299 313.174 1613.818 309.283 1593.000 311.071 "/></g>
<g fill="#FFCB05FF" stroke="#FFCB05FF">
<path d="M 1058.309 110.157 L 1025.118 150.208 1028.700 155.604 C 1030.671 158.572 1032.789 161.000 1033.407 161.000 C 1034.382 161.000 1124.871 116.462 1125.816 115.517 C 1126.330 115.004 1093.569 70.680 1092.445 70.368 C 1091.925 70.224 1076.564 88.129 1058.309 110.157 "/></g>
<g fill="#21386EFF" stroke="#21386EFF">
<path d="M 15.250 258.958 C 7.962 266.592 2.000 273.046 2.000 273.300 C 2.000 273.554 12.278 291.102 24.841 312.296 L 47.682 350.832 63.591 342.280 C 72.341 337.577 79.712 333.540 79.972 333.309 C 80.231 333.078 79.139 330.552 77.543 327.695 C 70.434 314.962 30.663 247.378 29.639 246.289 C 28.765 245.360 25.415 248.310 15.250 258.958 "/></g>
<g fill="#C7A008FF" stroke="#C7A008FF">
<path d="M 1261.640 190.750 C 1261.369 191.713 1260.855 194.525 1260.500 197.000 C 1260.145 199.475 1259.631 202.288 1259.360 203.250 C 1258.895 204.894 1261.082 205.000 1295.365 205.000 C 1329.264 205.000 1331.902 205.125 1332.381 206.750 C 1332.665 207.713 1337.485 233.925 1343.094 265.000 C 1348.702 296.075 1353.480 321.717 1353.712 321.983 C 1353.943 322.248 1357.614 318.747 1361.869 314.202 C 1366.124 309.658 1369.512 305.840 1369.398 305.720 C 1369.284 305.599 1364.638 280.525 1359.075 250.000 C 1353.511 219.475 1348.707 193.263 1348.400 191.750 L 1347.841 189.000 1304.988 189.000 C 1265.030 189.000 1262.101 189.118 1261.640 190.750 "/></g>
<g fill="#C7A008FF" stroke="#C7A008FF">
<path d="M 1065.000 207.592 C 1037.823 210.798 1021.204 215.408 1001.568 225.186 C 988.114 231.886 978.145 238.896 968.000 248.790 L 959.500 257.080 967.067 251.747 C 982.113 241.142 1000.493 233.048 1020.776 228.095 C 1073.091 215.320 1121.324 227.573 1155.338 262.278 L 1163.176 270.275 1170.588 262.913 C 1174.665 258.863 1178.000 254.967 1178.000 254.255 C 1178.000 252.201 1164.270 238.870 1155.464 232.374 C 1134.586 216.972 1109.297 208.514 1081.399 207.601 C 1074.305 207.369 1066.925 207.365 1065.000 207.592 "/></g>
<g fill="#C7A008FF" stroke="#C7A008FF">
<path d="M 341.500 476.108 C 337.650 478.875 333.924 481.470 333.221 481.875 C 332.244 482.438 337.169 502.198 354.079 565.556 C 366.254 611.175 376.505 648.998 376.858 649.606 C 377.619 650.918 394.575 645.901 394.375 644.423 C 393.936 641.187 349.403 471.029 349.000 471.051 C 348.725 471.065 345.350 473.341 341.500 476.108 "/></g>
<g fill="#C7A008FF" stroke="#C7A008FF">
<path d="M 693.500 189.401 L 639.500 205.588 639.186 209.930 C 639.013 212.318 639.297 214.697 639.816 215.216 C 640.642 216.042 665.631 208.971 722.748 191.752 C 728.384 190.052 733.262 188.928 733.587 189.254 C 733.913 189.579 735.715 216.093 737.593 248.173 C 739.470 280.253 741.142 306.911 741.307 307.413 C 741.473 307.915 745.036 303.496 749.225 297.595 C 756.742 287.004 756.835 286.796 756.382 281.682 C 755.941 276.695 750.000 176.653 750.000 174.200 C 750.000 173.540 749.438 173.048 748.750 173.107 C 748.063 173.166 723.200 180.498 693.500 189.401 "/></g>
<g fill="#0070B6FF" stroke="#0070B6FF">
<path d="M 66.441 346.745 L 50.383 355.419 70.269 388.954 C 81.207 407.398 90.342 422.676 90.570 422.904 C 90.798 423.131 94.671 419.576 99.178 415.003 L 107.370 406.688 130.435 396.712 C 143.121 391.225 153.692 386.566 153.927 386.358 C 154.161 386.150 153.703 384.606 152.908 382.927 L 151.462 379.875 135.188 387.937 C 126.237 392.372 118.483 396.000 117.957 396.000 C 117.431 396.000 117.000 395.520 117.000 394.932 C 117.000 393.625 84.145 338.586 83.185 338.285 C 82.808 338.167 75.274 341.974 66.441 346.745 "/></g>
<g fill="#C7A008FF" stroke="#C7A008FF">
<path d="M 1539.931 357.815 C 1527.128 370.845 1518.581 386.556 1516.578 400.741 C 1515.560 407.950 1517.791 418.729 1522.218 428.000 C 1531.638 447.722 1552.001 459.942 1575.520 459.985 C 1594.240 460.020 1612.362 451.204 1628.730 434.100 C 1636.810 425.657 1636.857 425.579 1631.313 429.820 C 1611.072 445.304 1586.507 448.028 1564.000 437.286 C 1558.352 434.591 1554.643 431.829 1548.980 426.103 C 1540.297 417.325 1536.749 411.250 1533.978 400.415 C 1529.878 384.384 1532.565 371.066 1542.876 356.315 L 1546.500 351.129 1539.931 357.815 "/></g>
<g fill="#C7A008FF" stroke="#C7A008FF">
<path d="M 529.971 388.266 C 523.180 394.866 518.109 400.808 515.688 405.000 C 502.004 428.703 505.802 454.715 525.617 473.000 C 552.673 497.967 595.961 492.879 621.619 461.717 L 626.739 455.500 621.332 459.717 C 596.736 478.900 560.897 477.086 539.443 455.574 C 536.111 452.233 531.942 446.959 530.178 443.853 C 526.477 437.336 523.000 424.803 523.000 417.977 C 523.000 406.244 528.217 392.417 536.146 383.130 C 538.541 380.326 535.762 382.637 529.971 388.266 "/></g>
<g fill="#C7A008FF" stroke="#C7A008FF">
<path d="M 831.800 182.477 C 828.136 187.689 825.481 191.852 825.901 191.727 C 827.139 191.359 903.067 263.095 902.770 264.352 C 902.622 264.983 906.196 261.647 910.714 256.937 L 918.929 248.374 879.346 210.687 C 857.575 189.959 839.470 173.000 839.112 173.000 C 838.755 173.000 835.464 177.265 831.800 182.477 "/></g>
<g fill="#21386EFF" stroke="#21386EFF">
<path d="M 1621.250 178.762 L 1605.000 187.472 1605.000 218.320 L 1605.000 249.167 1619.750 248.530 C 1641.543 247.589 1639.023 250.330 1638.867 227.731 C 1638.794 217.154 1638.456 199.849 1638.117 189.276 L 1637.500 170.053 1621.250 178.762 "/></g>
<g fill="#C7A008FF" stroke="#C7A008FF">
<path d="M 1756.020 418.479 L 1748.649 425.900 1734.909 503.652 C 1727.352 546.416 1720.926 582.619 1720.629 584.103 C 1720.106 586.718 1720.281 586.836 1726.229 587.884 C 1729.606 588.478 1732.463 588.860 1732.579 588.732 C 1733.029 588.234 1764.029 411.696 1763.720 411.387 C 1763.540 411.206 1760.075 414.398 1756.020 418.479 "/></g>
<g fill="#C7A008FF" stroke="#C7A008FF">
<path d="M 761.250 438.238 L 754.000 445.547 754.000 508.367 L 754.000 571.188 759.250 570.541 C 762.138 570.185 765.738 569.657 767.250 569.368 L 770.000 568.841 769.876 506.671 C 769.807 472.477 769.470 441.447 769.126 437.715 L 768.500 430.930 761.250 438.238 "/></g>
<g fill="#21386EFF" stroke="#21386EFF">
<path d="M 1213.506 165.570 C 1205.260 170.165 1198.191 174.729 1197.797 175.712 C 1197.403 176.696 1195.708 186.213 1194.030 196.861 L 1190.979 216.223 1196.915 222.568 C 1200.179 226.058 1205.807 232.575 1209.420 237.051 C 1213.271 241.820 1216.167 244.632 1216.417 243.844 C 1216.878 242.394 1230.056 158.994 1230.021 157.750 C 1229.985 156.475 1228.944 156.968 1213.506 165.570 "/></g>
<g fill="#C7A008FF" stroke="#C7A008FF">
<path d="M 290.164 303.877 C 287.324 307.613 285.000 311.229 285.000 311.913 C 285.000 314.585 322.384 438.344 323.668 439.923 C 324.133 440.494 337.502 431.310 339.171 429.273 C 340.344 427.841 340.196 427.849 337.907 429.337 L 335.315 431.024 321.525 386.762 C 302.935 327.091 295.957 302.879 296.620 300.343 C 297.785 295.892 295.130 297.345 290.164 303.877 "/></g>
<g fill="#21386EFF" stroke="#21386EFF">
<path d="M 588.000 189.528 C 579.475 194.157 572.123 198.083 571.663 198.251 C 570.955 198.511 572.713 244.977 573.461 245.777 C 573.781 246.119 606.143 242.191 606.576 241.757 C 607.154 241.180 604.752 182.509 604.122 181.806 C 603.780 181.424 596.525 184.899 588.000 189.528 "/></g>
<g fill="#C7A008FF" stroke="#C7A008FF">
<path d="M 1142.685 343.190 C 1138.412 347.623 1135.048 351.337 1135.208 351.443 C 1135.552 351.671 1185.262 396.196 1189.185 399.790 L 1191.871 402.251 1199.935 394.875 C 1204.370 390.819 1207.887 387.191 1207.749 386.813 C 1207.535 386.222 1155.985 339.594 1151.921 336.315 C 1150.713 335.341 1149.076 336.559 1142.685 343.190 "/></g>
<g fill="#0070B6FF" stroke="#0070B6FF">
<path d="M 990.252 121.250 L 944.008 174.500 959.998 166.500 L 975.989 158.500 987.244 145.542 C 1002.979 127.427 1043.208 80.767 1044.912 78.655 C 1046.175 77.089 1045.865 76.438 1041.954 72.453 C 1039.550 70.004 1037.339 68.000 1037.040 68.000 C 1036.741 68.000 1015.686 91.963 990.252 121.250 "/></g>
<g fill="#C7A008FF" stroke="#C7A008FF">
<path d="M 1307.946 388.547 L 1300.500 396.036 1291.873 450.268 C 1286.361 484.919 1283.609 504.730 1284.251 505.138 C 1285.607 505.999 1295.110 507.224 1295.718 506.616 C 1296.261 506.073 1316.037 381.704 1315.643 381.310 C 1315.505 381.172 1312.041 384.428 1307.946 388.547 "/></g>
<g fill="#21386EFF" stroke="#21386EFF">
<path d="M 622.500 275.022 C 611.078 278.179 605.782 280.328 593.739 286.692 C 585.621 290.983 579.321 294.605 579.739 294.743 C 580.158 294.881 586.343 293.450 593.485 291.565 C 600.626 289.679 606.647 288.314 606.864 288.531 C 607.082 288.749 607.671 293.330 608.173 298.713 C 608.675 304.096 609.235 308.950 609.416 309.500 C 609.598 310.050 612.841 311.084 616.623 311.798 C 620.405 312.511 628.178 314.658 633.896 316.569 C 639.613 318.479 644.422 319.912 644.581 319.752 C 644.930 319.403 641.096 276.452 640.430 273.250 C 639.825 270.340 639.223 270.400 622.500 275.022 "/></g>
<g fill="#C7A008FF" stroke="#C7A008FF">
<path d="M 1099.395 60.675 L 1092.291 69.320 1099.434 78.910 C 1103.363 84.184 1110.812 94.267 1115.989 101.315 C 1121.166 108.363 1125.734 114.336 1126.142 114.588 C 1127.262 115.280 1146.061 105.683 1145.701 104.602 C 1145.232 103.196 1107.580 52.064 1107.000 52.046 C 1106.725 52.037 1103.303 55.920 1099.395 60.675 "/></g>
<g fill="#21386EFF" stroke="#21386EFF">
<path d="M 958.773 167.318 C 950.123 171.818 943.036 175.847 943.023 176.270 C 943.010 176.694 948.183 183.136 954.519 190.586 C 960.854 198.036 965.804 204.508 965.519 204.969 C 965.234 205.430 968.713 203.564 973.250 200.821 C 977.788 198.079 985.445 193.966 990.266 191.682 C 995.705 189.105 998.853 187.060 998.559 186.293 C 997.652 183.930 976.576 159.000 975.541 159.068 C 974.969 159.105 967.423 162.817 958.773 167.318 "/></g>
<g fill="#0070B6FF" stroke="#0070B6FF">
<path d="M 589.201 247.268 L 572.902 249.278 573.410 251.889 C 573.690 253.325 574.223 263.050 574.594 273.500 C 574.965 283.950 575.546 293.243 575.884 294.152 C 576.401 295.538 579.114 294.421 592.773 287.198 L 609.046 278.592 608.535 271.546 C 608.253 267.671 607.751 260.113 607.418 254.750 C 607.085 249.388 606.518 245.058 606.157 245.129 C 605.796 245.200 598.165 246.163 589.201 247.268 "/></g>
<g fill="#C7A008FF" stroke="#C7A008FF">
<path d="M 1004.360 278.275 C 996.633 286.313 993.263 291.151 989.092 300.191 C 980.683 318.417 980.051 335.721 987.123 354.132 C 990.029 361.698 997.510 373.424 1002.189 377.746 L 1004.621 379.992 1010.570 375.746 L 1016.519 371.500 1012.235 367.597 C 1006.277 362.170 999.223 351.197 996.214 342.676 C 992.885 333.251 992.044 316.734 994.386 306.757 C 996.148 299.248 1001.468 287.974 1005.524 283.154 C 1006.984 281.419 1007.901 280.000 1007.563 280.000 C 1007.225 280.000 1007.668 278.608 1008.548 276.907 C 1009.428 275.206 1009.975 273.642 1009.765 273.432 C 1009.555 273.222 1007.123 275.401 1004.360 278.275 "/></g>
<g fill="#21386EFF" stroke="#21386EFF">
<path d="M 812.463 126.866 C 793.011 137.588 793.378 137.308 790.029 143.942 L 786.969 150.004 786.735 173.248 L 786.500 196.492 806.000 159.119 C 816.725 138.564 825.650 121.353 825.833 120.873 C 826.417 119.345 824.764 120.085 812.463 126.866 "/></g>
<g fill="#21386EFF" stroke="#21386EFF">
<path d="M 1094.616 10.793 L 1079.732 18.500 1059.719 41.396 L 1039.706 64.292 1044.603 68.630 L 1049.500 72.968 1053.914 68.234 C 1065.031 56.311 1109.981 4.447 1109.754 3.805 C 1109.614 3.409 1102.802 6.554 1094.616 10.793 "/></g>
<g fill="#7D7F68FF" stroke="#7D7F68FF">
<path d="M 329.686 317.699 C 329.373 318.206 329.582 320.453 330.150 322.693 C 331.160 326.674 331.320 326.795 337.226 328.048 C 347.719 330.275 355.626 337.185 358.071 346.264 C 359.602 351.949 359.498 366.273 357.882 372.303 L 356.500 377.458 361.389 370.979 C 368.835 361.112 370.377 356.998 370.377 347.000 C 370.377 336.587 368.897 331.928 363.845 326.447 C 358.144 320.263 351.560 317.724 339.878 317.205 C 334.572 316.969 330.000 317.191 329.686 317.699 "/></g>
<g fill="#21386EFF" stroke="#21386EFF">
<path d="M 1194.569 292.537 C 1185.943 301.677 1179.034 309.603 1179.217 310.152 C 1179.808 311.923 1201.479 330.873 1202.115 330.175 C 1202.930 329.281 1211.283 276.949 1210.703 276.370 C 1210.456 276.123 1203.196 283.398 1194.569 292.537 "/></g>
<g fill="#C7A008FF" stroke="#C7A008FF">
<path d="M 1394.210 410.311 L 1386.921 417.627 1375.089 448.063 L 1363.258 478.500 1366.081 484.000 C 1367.633 487.025 1368.925 489.221 1368.952 488.881 C 1368.978 488.540 1376.185 469.733 1384.966 447.087 C 1393.747 424.442 1401.060 405.257 1401.216 404.454 C 1401.372 403.651 1398.220 406.287 1394.210 410.311 "/></g>
<g fill="#C7A008FF" stroke="#C7A008FF">
<path d="M 1128.087 356.251 C 1123.024 360.098 1112.314 365.485 1104.564 368.082 C 1094.874 371.330 1078.566 374.231 1071.973 373.881 L 1067.194 373.628 1059.347 381.977 L 1051.500 390.326 1060.000 389.669 C 1080.392 388.091 1102.906 379.671 1116.000 368.725 C 1122.440 363.342 1132.728 352.723 1128.087 356.251 "/></g>
<g fill="#21386EFF" stroke="#21386EFF">
<path d="M 1836.538 223.155 C 1830.509 226.419 1825.412 229.255 1825.211 229.455 C 1824.837 229.830 1833.737 275.070 1834.295 275.628 C 1834.466 275.799 1837.680 263.240 1841.437 247.720 C 1845.195 232.199 1848.481 218.938 1848.741 218.250 C 1849.473 216.316 1848.289 216.791 1836.538 223.155 "/></g>
<g fill="#21386EFF" stroke="#21386EFF">
<path d="M 1629.000 275.949 L 1619.500 280.795 1623.500 281.467 C 1633.215 283.098 1647.509 287.233 1655.820 290.816 L 1664.838 294.704 1665.472 288.602 C 1665.820 285.246 1666.334 281.301 1666.613 279.837 C 1666.991 277.856 1666.657 277.033 1665.310 276.628 C 1661.845 275.585 1640.724 271.000 1639.616 271.051 C 1639.002 271.079 1634.225 273.283 1629.000 275.949 "/></g>
<g fill="#C7A008FF" stroke="#C7A008FF">
<path d="M 624.009 395.491 L 616.550 403.000 616.850 410.250 C 617.014 414.237 616.676 418.738 616.099 420.250 C 614.777 423.714 615.536 423.674 620.354 420.027 C 628.154 414.124 633.084 404.545 632.930 395.591 C 632.787 387.303 632.149 387.296 624.009 395.491 "/></g>
<g fill="#7D7F68FF" stroke="#7D7F68FF">
<path d="M 1044.286 282.396 C 1038.890 284.153 1032.141 288.124 1029.201 291.271 L 1026.903 293.732 1032.169 292.366 C 1038.217 290.797 1051.628 290.603 1057.500 291.999 C 1061.440 292.935 1061.562 292.879 1065.670 288.225 C 1068.293 285.254 1069.493 283.142 1068.905 282.535 C 1067.369 280.950 1049.044 280.846 1044.286 282.396 "/></g>
<g fill="#0070B6FF" stroke="#0070B6FF">
<path d="M 1344.750 145.746 C 1336.088 150.439 1329.000 154.666 1329.000 155.140 C 1329.000 155.613 1335.665 156.000 1343.810 156.000 L 1358.620 156.000 1360.122 146.500 C 1360.948 141.275 1361.371 137.048 1361.062 137.107 C 1360.753 137.165 1353.413 141.053 1344.750 145.746 "/></g>
<g fill="#C7A008FF" stroke="#C7A008FF">
<path d="M 1634.568 367.932 L 1626.735 375.811 1626.575 383.655 C 1626.487 387.970 1626.020 392.362 1625.537 393.415 C 1624.052 396.654 1633.704 389.391 1637.083 384.727 C 1640.897 379.461 1643.249 371.318 1642.775 365.016 L 1642.401 360.052 1634.568 367.932 "/></g>
<g fill="#C7A008FF" stroke="#C7A008FF">
<path d="M 1592.302 338.079 C 1586.564 340.311 1578.525 347.020 1575.637 351.987 C 1573.820 355.113 1573.820 355.167 1575.637 354.195 C 1576.662 353.647 1580.313 352.645 1583.752 351.969 C 1589.635 350.812 1590.401 350.319 1596.730 343.620 L 1603.457 336.500 1600.478 336.279 C 1598.840 336.157 1595.161 336.967 1592.302 338.079 "/></g>
<g fill="#C7A008FF" stroke="#C7A008FF">
<path d="M 592.000 363.833 C 592.000 364.475 591.117 365.000 590.038 365.000 C 583.180 365.000 569.935 373.590 565.793 380.723 L 564.086 383.664 569.293 381.864 C 572.157 380.875 575.186 380.051 576.023 380.033 C 577.948 379.991 593.638 364.305 592.697 363.363 C 592.314 362.980 592.000 363.192 592.000 363.833 "/></g>
<g fill="#000000FF" stroke="#000000FF">
<path d="M 1898.000 673.500 C 1898.000 685.211 1899.805 686.233 1900.210 674.750 L 1900.500 666.500 1903.349 674.800 C 1905.017 679.659 1906.675 682.945 1907.349 682.724 C 1907.982 682.517 1909.523 679.456 1910.774 675.924 C 1914.294 665.982 1914.421 665.955 1915.043 675.000 L 1915.627 683.500 1915.814 673.750 C 1916.054 661.181 1914.456 660.795 1910.644 672.500 C 1909.122 677.175 1907.707 681.000 1907.500 681.000 C 1907.293 681.000 1905.878 677.175 1904.356 672.500 C 1902.246 666.021 1901.161 664.000 1899.794 664.000 C 1898.195 664.000 1898.000 665.031 1898.000 673.500 "/></g>
<g fill="#7D7F68FF" stroke="#7D7F68FF">
<path d="M 1261.000 188.750 C 1260.999 189.163 1280.687 189.266 1304.750 188.979 L 1348.500 188.458 1304.750 188.229 C 1280.688 188.103 1261.000 188.338 1261.000 188.750 "/></g>
<g fill="#21386EFF" stroke="#21386EFF">
<path d="M 952.500 212.342 C 946.450 215.555 941.302 218.378 941.060 218.616 C 940.817 218.853 941.388 219.817 942.328 220.757 C 943.528 221.956 944.444 222.173 945.399 221.483 C 946.587 220.626 955.589 213.195 961.500 208.192 C 962.600 207.262 958.550 209.129 952.500 212.342 "/></g>
<g fill="#000000FF" stroke="#000000FF">
<path d="M 1880.000 665.000 C 1880.000 665.550 1881.350 666.000 1883.000 666.000 L 1886.000 666.000 1886.000 674.500 C 1886.000 679.500 1886.412 683.000 1887.000 683.000 C 1887.588 683.000 1888.000 679.500 1888.000 674.500 L 1888.000 666.000 1891.500 666.000 C 1893.425 666.000 1895.000 665.550 1895.000 665.000 C 1895.000 664.422 1891.833 664.000 1887.500 664.000 C 1883.167 664.000 1880.000 664.422 1880.000 665.000 "/></g>
</svg>
